<svg version="1.2" xmlns="http://www.w3.org/2000/svg" viewBox="0 0 193 193" width="170" height="163">
	<title>macintos-svg</title>
	<style>
		.s0 { fill: #ffffff } 
		.s1 { fill: #000000 } 
	</style>
	<g id="Layer">
		<path id="Layer" fill-rule="evenodd" class="s0" d="m0 0h192.8v192.8h-192.8z" />
		<path id="Layer" fill-rule="evenodd" class="s1" d="m9.9 133.3l-0.9 28c0 4.7 4.5 3.8 4.5 4.7c0 0.6-0.6 0.8-1.8 0.8h-7.4c-1 0-1.5-0.3-1.5-0.7c0-1.4 4.4 0 4.5-4.5l1-30.9c0-3-4.8-1.8-4.8-3.2c0-0.4 0.5-0.6 1.4-0.6h7.6l9 30.6l8.7-30.8l6.2 0.2c1 0 1.5 0.2 1.5 0.8c0 1.2-3.6 0-3.6 3.2l1.2 30.8c0.1 1.7 0.4 2.8 0.9 3.1c1.1 0.9 2.9 0.5 2.9 1.3c0 0.5-0.4 0.7-1.3 0.7h-9.4c-0.9 0-1.4-0.2-1.4-0.7c0-1.3 4 0 4-3.4v-0.8l-1.1-28.6l-8.8 31.2c-0.5 1.8-0.6 2-1.2 2c-0.7 0-0.8-0.7-1.2-2.2zm68.4 6.4v4.5c0 1.2-0.3 2.1-1.3 2.1c-2.4 0-2.1-7.3-6.4-7.3c-3.4 0-6.9 5.3-6.9 13.1c0 8.2 3.2 12.9 7.8 12.9c5.4 0 5.3-6.1 6.5-6.1c0.5 0 0.8 0.4 0.8 1c0 4.4-4.8 8.2-8.7 8.2c-5.9 0-10.8-6.4-10.8-15.5c0-9.5 5.7-15.3 12.3-15.3c3.1 0 5.2 0.8 6.7 2.4zm7.3-13.2c1.4 0 2.4 1.5 2.4 3.6c0 2-0.9 3.3-2.4 3.3c-1.3 0-2.5-1.3-2.5-3.3c0-2.1 1.2-3.6 2.5-3.6zm11.6 11.9l0.2 2.8c3.3-2.9 5.4-4.2 8.6-4.2c4.6 0 7.3 3.2 7.3 8.4v16c0 1.7 0.1 2.6 0.8 3.3c0.9 0.9 2.9 0.3 2.9 1.4c0 0.5-0.4 0.7-1.3 0.7h-8.1c-1.1 0-1.7-0.2-1.7-0.8c0-0.7 3.3 0 3.3-3.3v-17.3c0-3.7-2.2-5.9-5.1-5.9c-3.8 0-6.5 2.7-6.5 6v16.3c0 1.7 0.2 2.8 1 3.2c1.1 0.6 3.2 0.1 3.2 1c0 0.6-0.5 0.8-1.6 0.8h-18.1c-1.2 0-1.8-0.2-1.8-0.7c0-1 1.8-0.5 2.6-1.3c0.6-0.6 0.6-1.4 0.6-3v-17.1c0-3.6-3.2-2.5-3.2-3.6c0-0.4 6.5-4.1 6.6-4.1c0.4 0 0.7 0.5 0.7 1.5l-0.1 23.4c0 2.3 0.5 3.2 2.9 3.2c2.9 0 3-1 3-3.4v-17.2c0-2.6-0.2-2.6-2.2-2.6c-0.6 0-1.1-0.2-1.1-0.7c0-0.4 6.5-4.7 6.7-4.7c0.4 0 0.4 0.5 0.4 1.9zm66.8 0.1l0.1 5.7c0 0.7-0.2 1.1-0.8 1.1c-2.1 0-1.1-6.6-6.4-6.6c-2.4 0-4.4 1.8-4.4 4.7c0 1.4 0.8 3 2.8 4.3l5.1 3.4c2.9 2 4.2 4.3 4.2 7.5c0 4.8-3.9 9-9.6 9c-4.9 0-7.1-1.3-7.1-2.8v-4.5c0-1.8 0.2-2.8 1-2.8c2 0 1.6 8.3 7.1 8.3c2.5 0 4.9-2.5 4.9-5.8c0-2.1-1.1-3.7-2.9-5l-5.4-3.7c-2.3-1.6-3.8-3.7-3.8-6.6c0-4.3 3.9-7.7 9.1-7.7c2 0 3.3 0.3 6.1 1.5z" />
		<path id="Layer" fill-rule="evenodd" class="s1" d="m171 127.9v13.1c2.9-2.5 5.1-3.7 8-3.7c5.2 0 7.8 3.7 7.8 9.5v16.1c0 3.1 3.1 2.3 3.1 3.1c0 0.6-0.6 0.8-2.5 0.8h-6.9c-1 0-1.2-0.2-1.2-0.7c0-1 3.2 0 3.2-3.2v-16.2c0-4.3-2-6.8-5.3-6.8c-3.6 0-6.2 2.9-6.2 6.8v15.5c0 3.9 3.8 2.9 3.8 3.9c0 0.5-0.5 0.7-1.8 0.7h-8.6c-0.8 0-1.1-0.2-1.1-0.6c0-0.9 3.4 0 3.4-4v-31.1c0-3.2-3.4-2.2-3.4-3.2c0-0.4 6.8-4.1 6.9-4.1c0.8 0 0.8 1 0.8 4.1zm-110.7 33.3c-1.2 0-1.1 3.2-2.9 3.2c-1.2 0-1.7-1-1.7-2.7v-18.5c0-4.3-0.7-5.7-5-5.7c-4.6 0-12.3 3.9-12.3 9.3c0 1.3 0.6 1.8 1.3 1.8c5.2 0 3.3-9.6 9.5-9.6c1.6 0 2.1 0.7 2.1 2.4v7.4l-6.2 4.7c-4.7 3.5-6.6 5.9-6.6 8.9c0 2.6 2.4 5.4 4.9 5.4c2.4 0 4.9-1.5 8.2-5c0.7 3.2 1.8 5 4.1 5c1.7 0 5.2-2.6 5.2-5.9c0-0.4-0.2-0.7-0.6-0.7zm-14.5 3.5c-1.6 0-2.8-1.3-2.8-3.7c0-3 2.5-6.3 8.3-10.3v10c-0.7 1-2.9 4-5.5 4zm90.6-27.7c-5.9 0-11.3 6-11.3 14.8c0 2.7 0.6 5.4 1.9 8.6l0.1 0.4c-0.7 2.1-1.8 3.4-3.2 3.4c-1.5 0-2.1-1.4-2.1-3.7v-20h3.8c1.2 0 1.8-0.3 1.8-1.2c0-1-0.7-1.2-1.8-1.2h-3.8v-7.2c0-0.5-0.1-1-0.4-1c-0.5 0-2 3.2-3.2 4.9c-1.3 2.1-3.5 4.2-3.5 4.9c0 0.5 0.5 0.8 1.5 0.8h1.4v20c0 4.5 1.6 6.9 4.6 6.9c2.4 0 4.6-1.6 6-4.7l0.1-0.2c2.5 2.9 4.9 4.8 8.4 4.8c5.9 0 11.3-6.8 11.3-15.1c0-8.8-5.4-15.2-11.6-15.2zm0.4 28.8c-3.8 0-7.1-5.4-7.1-14.3c0-8.3 2.3-12.7 6.5-12.7c4.2 0 7.3 4.9 7.3 14c0 8.2-2.6 13-6.7 13zm-71.9-113.1q-6 7.7-6 19.8q0 13.1 7.8 26.7q7.8 13.8 16 13.8q2.6 0 7-1.8q4.3-1.8 7.5-1.8q3.3 0 8 1.7q4.8 1.7 7.4 1.7q6.8 0 13.7-10.4q4.5-6.9 6.5-13.3q-4.7-1.4-8.4-6.6q-3.6-5.3-3.6-11.9q0-6 3.4-10.9q1.9-2.8 6.1-6.3q-2.8-3.4-5.6-5.3q-4.9-3.4-11.3-3.4q-3.9 0-9.1 1.8q-5.3 1.8-7.6 1.8q-1.8 0-7.3-1.6q-5.5-1.6-9.4-1.6q-9.1 0-15.1 7.6z" />
		<path id="Layer" fill-rule="evenodd" class="s1" d="m112.5 24.7q0.2 0.7 0.3 1.2q0.1 0.5 0.1 1q0 3.3-1.6 7.3q-1.5 3.9-4.9 7.3q-2.9 2.8-5.7 3.8q-1.9 0.6-5.5 0.9q0.1-7.9 4.1-13.6q4-5.8 13.2-7.9z" />
	</g>
</svg>